<?xml version="1.0" encoding="utf-8"?>
<!-- Generator: Adobe Illustrator 25.2.3, SVG Export Plug-In . SVG Version: 6.00 Build 0)  -->
<svg version="1.1"
	 id="svg2" sodipodi:docname="ADN_Logo_neg_hor_RGB.ai" xmlns:cc="http://creativecommons.org/ns#" xmlns:dc="http://purl.org/dc/elements/1.1/" xmlns:inkscape="http://www.inkscape.org/namespaces/inkscape" xmlns:rdf="http://www.w3.org/1999/02/22-rdf-syntax-ns#" xmlns:sodipodi="http://sodipodi.sourceforge.net/DTD/sodipodi-0.dtd" xmlns:svg="http://www.w3.org/2000/svg"
	 xmlns="http://www.w3.org/2000/svg" xmlns:xlink="http://www.w3.org/1999/xlink" x="0px" y="0px" viewBox="0 0 378 76.3"
	 style="enable-background:new 0 0 378 76.3;" xml:space="preserve">
<style type="text/css">
	.st0{clip-path:url(#SVGID_2_);}
	.st1{fill:#00E6A0;}
	.st2{fill:#FFFFFF;}
</style>
<sodipodi:namedview  bordercolor="#666666" borderopacity="1" gridtolerance="10" guidetolerance="10" id="namedview4" inkscape:pageopacity="0" inkscape:pageshadow="2" inkscape:window-height="480" inkscape:window-width="640" objecttolerance="10" pagecolor="#ffffff">
	</sodipodi:namedview>
<g id="g10" transform="matrix(1.3333333,0,0,-1.3333333,0,76.339333)" inkscape:groupmode="layer" inkscape:label="ADN_Logo_neg_hor_RGB">
	<g id="g12">
		<g>
			<defs>
				<rect id="SVGID_1_" x="-47.2" y="-9.5" width="378" height="76.3"/>
			</defs>
			<clipPath id="SVGID_2_">
				<use xlink:href="#SVGID_1_"  style="overflow:visible;"/>
			</clipPath>
			<g id="g14" class="st0">
				<g id="g52" transform="translate(27.8555,22.9018)">
					<path id="path54" class="st1" d="M0,0l6-18.6c0.9-2.8,3.3-4.3,6-4.3h8.9l1.1,1.6L14.6,0H0z"/>
				</g>
				<g id="g20" transform="translate(100.2355,23.0732)">
					<path id="path22" class="st2" d="M0,0c0-1.6-0.5-2.9-1.5-3.9c-1-1-2.3-1.5-4-1.5c-1.1,0-1.9,0.2-2.6,0.7c-0.6,0.5-1,1.2-1,2
						c0,1,0.4,1.8,1.1,2.3c0.8,0.5,1.8,0.8,3.2,0.8H0V0z M6.8-4C6.6-3.8,6.4-3.4,6.4-2.8v8.4c0,2.8-0.9,5-2.8,6.4s-4.4,2.2-7.8,2.2
						c-3.2,0-5.8-0.7-7.7-2c-1.5-1.1-2.5-2.4-3-4.2l5.8-1.6c0.7,1.4,1.6,3,4.6,3c1.4,0,2.4-0.3,3.2-0.9C-0.4,7.9,0,7.1,0,6V4.8h-4.7
						c-3.6,0-6.3-0.7-8.1-2.1c-1.9-1.4-2.8-3.3-2.8-5.9c0-2.2,0.8-3.9,2.4-5.2c1.6-1.2,3.8-1.8,6.4-1.8c1.8,0,3.3,0.4,4.6,1.1
						C-1-8.3,0.1-7.3,1-5.9C0.9-8.5,2.4-9.8,5.4-9.8h3.3v5.5H8C7.4-4.3,7.1-4.2,6.8-4"/>
				</g>
				<g id="g24" transform="translate(127.2984,20.1775)">
					<path id="path26" class="st2" d="M0,0c-1.1-1.3-2.5-1.9-4.2-1.9C-6-1.9-7.4-1.2-8.5,0c-1.1,1.3-1.6,2.9-1.6,5
						c0,2,0.5,3.7,1.6,5c1.1,1.3,2.5,1.9,4.2,1.9c1.8,0,3.2-0.6,4.2-1.9c1.1-1.3,1.6-2.9,1.6-5C1.6,2.9,1.1,1.3,0,0 M1.5,13.9
						c-1.7,2.2-4.1,3.2-7.2,3.2c-2.1,0-4-0.5-5.7-1.5c-1.7-1-3-2.4-3.9-4.3c-0.9-1.8-1.4-4-1.4-6.4c0-2.4,0.5-4.6,1.4-6.4
						c0.9-1.9,2.2-3.3,3.9-4.3c1.7-1,3.6-1.5,5.7-1.5c3.1,0,5.6,1.2,7.4,3.6l1.4-3.3H8v32.4H1.5V13.9z"/>
				</g>
				<g id="g28" transform="translate(183.1617,20.2001)">
					<path id="path30" class="st2" d="M0,0c-1.1-1.3-2.5-1.9-4.3-1.9c-1.8,0-3.2,0.6-4.3,1.9c-1.1,1.3-1.6,2.9-1.6,5s0.5,3.7,1.6,5
						s2.5,1.9,4.3,1.9c1.8,0,3.3-0.6,4.3-1.9C1.1,8.7,1.6,7,1.6,5S1.1,1.3,0,0 M2.3,15.6c-1.9,1-4.1,1.5-6.6,1.5s-4.7-0.5-6.6-1.5
						c-1.9-1-3.4-2.4-4.4-4.3c-1-1.9-1.6-4-1.6-6.4c0-2.4,0.5-4.5,1.6-6.4c1-1.9,2.5-3.3,4.4-4.3c1.9-1,4.1-1.5,6.6-1.5
						s4.7,0.5,6.6,1.5s3.4,2.4,4.4,4.3c1,1.8,1.6,4,1.6,6.4c0,2.4-0.5,4.5-1.6,6.4C5.6,13.2,4.2,14.6,2.3,15.6"/>
				</g>
				<g id="g32" transform="translate(235.0851,25.3447)">
					<path id="path34" class="st2" d="M0,0c0-2.2-0.4-3.9-1.3-5.1C-2.2-6.3-3.5-7-5.1-7c-1.6,0-2.7,0.5-3.5,1.6
						c-0.8,1.1-1.1,2.7-1.1,4.9v12.1h-6.5V-1.2c0-4,0.9-6.9,2.6-8.6c1.8-1.7,4-2.6,6.8-2.6c1.6,0,3,0.3,4.1,0.8
						c1.1,0.6,2.1,1.3,2.9,2.3l1.4-2.9h5v23.8H0V0z"/>
				</g>
				<g id="g36" transform="translate(281.0547,34.7974)">
					<path id="path38" class="st2" d="M0,0c-1.6,1.7-3.7,2.5-6.3,2.5c-1.8,0-3.4-0.3-4.8-1c-1.4-0.7-2.5-1.7-3.4-3
						c-1.3,2.7-3.7,4-7.1,4c-1.7,0-3.1-0.3-4.2-0.9c-1.1-0.6-2.1-1.3-2.9-2.4l-1.4,3h-4.9v-23.8h6.5v13c0,1.8,0.4,3.2,1.3,4.2
						c0.8,1,2,1.6,3.4,1.6c2.8,0,4.2-1.8,4.2-5.4v-13.3h6.5v13c0,1.8,0.4,3.2,1.3,4.2c0.9,1,2,1.5,3.4,1.5c2.7,0,4.1-1.8,4.1-5.4
						v-13.3h6.5v13.1C2.4-4.5,1.6-1.7,0,0"/>
				</g>
				<g id="g40" transform="translate(204.6229,19.9216)">
					<path id="path42" class="st2" d="M0,0h-0.2l-5.6,17.1h-7l8.6-23.8h8.1l8.6,23.8H5.5L0,0z"/>
				</g>
				<g id="g44" transform="translate(153.5266,37.346)">
					<path id="path46" class="st2" d="M0,0c-1.7,0-3.2-0.3-4.4-0.9c-1.2-0.6-2.2-1.4-3-2.4l-1.4,3h-4.9v-23.8h6.5v12.2
						c0,2.1,0.5,3.7,1.4,4.8c0.9,1.1,2.2,1.7,3.9,1.7C1.4-5.4,3-7.4,3-11.5v-12.6h6.5v12.9c0,4-0.9,6.8-2.7,8.6C5.1-0.9,2.8,0,0,0"
						/>
				</g>
				<g id="g48" transform="translate(64.1307)">
					<path id="path50" class="st2" d="M0,0h-15.3l-16.4,46.7h-0.6L-47,4.9C-47.9,2-50.4,0-53.2,0h-10.9l21.5,57.3h21.2L0,0z"/>
				</g>
			</g>
		</g>
	</g>
</g>
</svg>
